<?xml version="1.0" encoding="utf-8"?>
<svg version="1.1" id="Calque_1" xmlns="http://www.w3.org/2000/svg" xmlns:xlink="http://www.w3.org/1999/xlink" x="0px" y="0px"
	 width="500px" height="180px" viewBox="0 0 500 180" enable-background="new 0 0 500 180" xml:space="preserve">
<rect id="fond" x="0" y="0" fill="#333333" width="500" height="181"/>
<g>
	<path fill="#FFB115" d="M250.8,93.2c-5.4,0-10.4,1.6-14.9,4.1c3.5,3.8,6.3,8.5,7.9,13.6c1.9-1.3,4.4-2.2,7-2.2
		c7,0,12.7,5.7,12.7,12.7c0,7-5.7,12.7-12.7,12.7c-2.5,0-5.1-0.6-7-2.2c-1.6,5.1-4.4,9.8-7.9,13.6c4.4,2.5,9.5,4.1,14.9,4.1
		c15.8,0,28.5-12.7,28.5-28.5S266.7,93.2,250.8,93.2z"/>
	<path fill="none" stroke="#FFB115" stroke-width="15.8302" stroke-miterlimit="10" d="M178,142.3c-11.4,0-20.6-9.2-20.6-20.6
		s9.2-20.6,20.6-20.6"/>
	<path fill="none" stroke="#FFB115" stroke-width="15.8302" stroke-miterlimit="10" d="M365.8,122.3c0-11.4-9.2-20.6-20.6-20.6
		s-20.6,9.2-20.6,20.6s9.2,20.6,20.6,20.6H361"/>
	
		<circle opacity="0.5" fill="none" stroke="#FFB115" stroke-width="15.8302" stroke-miterlimit="10" cx="209.7" cy="121.7" r="20.6"/>
	<path fill="none" stroke="#FFB115" stroke-width="15.8302" stroke-miterlimit="10" d="M144.1,30.5c-16.5-6-34.8,2.5-40.5,19
		s2.5,34.5,19,40.5c16.5,6,25,24.1,19.3,40.5c-6,16.5-24.1,25-40.5,19.3"/>
	<path fill="#FFB115" d="M387.9,150.2c-1.9,0-4.1-0.3-6-0.9l4.4-12.3c2.5,0.9,5.4-0.3,6.3-2.8c0.9-2.5-0.3-5.4-2.8-6.3
		c-9.5-3.5-14.2-13.6-11.1-23.1c3.2-9.5,13.6-14.2,23.1-11.1l-4.4,12.3c-2.5-0.9-5.4,0.3-6.3,2.8s0.3,5.4,2.8,6.3
		c9.5,3.5,14.2,13.6,11.1,23.1C402.5,145.8,395.5,150.2,387.9,150.2z"/>
	<path fill="none" stroke="#FFB115" stroke-width="15.8302" stroke-miterlimit="10" d="M315.1,98.9c-11.4,0-20.6,9.2-20.6,20.6v30.7
		"/>
</g>
</svg>
