<?xml version="1.0" encoding="utf-8"?>
<!-- Generator: Adobe Illustrator 28.1.0, SVG Export Plug-In . SVG Version: 6.00 Build 0)  -->
<svg version="1.1" id="Calque_1" xmlns="http://www.w3.org/2000/svg" xmlns:xlink="http://www.w3.org/1999/xlink" x="0px" y="0px"
	 width="100px" height="46px" viewBox="0 0 100 46" style="enable-background:new 0 0 100 46;" xml:space="preserve">
<style type="text/css">
	.st0{fill:#FFB115;}
	.st1{fill:none;stroke:#FFB115;stroke-width:5;stroke-miterlimit:10;}
	.st2{opacity:0.5;fill:none;stroke:#FFB115;stroke-width:5;stroke-miterlimit:10;enable-background:new    ;}
</style>
<path class="st0" d="M50.1,24c-1.7,0-3.3,0.5-4.7,1.3c1.1,1.2,2,2.7,2.5,4.3c0.6-0.4,1.4-0.7,2.2-0.7c2.2,0,4,1.8,4,4s-1.8,4-4,4
	c-0.8,0-1.6-0.2-2.2-0.7c-0.5,1.6-1.4,3.1-2.5,4.3c1.4,0.8,3,1.3,4.7,1.3c5,0,9-4,9-9S55.1,24,50.1,24z"/>
<path class="st1" d="M27.1,39.5c-3.6,0-6.5-2.9-6.5-6.5s2.9-6.5,6.5-6.5"/>
<path class="st1" d="M86.4,33.2c0-3.6-2.9-6.5-6.5-6.5s-6.5,2.9-6.5,6.5s2.9,6.5,6.5,6.5h5"/>
<circle class="st2" cx="37.1" cy="33" r="6.5"/>
<path class="st1" d="M16.4,4.2c-5.2-1.9-11,0.8-12.8,6s0.8,10.9,6,12.8s7.9,7.6,6.1,12.8c-1.9,5.2-7.6,7.9-12.8,6.1"/>
<path class="st0" d="M93.4,42c-0.6,0-1.3-0.1-1.9-0.3l1.4-3.9c0.8,0.3,1.7-0.1,2-0.9c0.3-0.8-0.1-1.7-0.9-2c-3-1.1-4.5-4.3-3.5-7.3
	s4.3-4.5,7.3-3.5L96.4,28c-0.8-0.3-1.7,0.1-2,0.9s0.1,1.7,0.9,2c3,1.1,4.5,4.3,3.5,7.3C98,40.6,95.8,42,93.4,42z"/>
<path class="st1" d="M70.4,25.8c-3.6,0-6.5,2.9-6.5,6.5V42"/>
</svg>
