<?xml version="1.0" encoding="utf-8"?>
<!-- Generator: Adobe Illustrator 28.1.0, SVG Export Plug-In . SVG Version: 6.00 Build 0)  -->
<svg version="1.1" id="Calque_1" xmlns="http://www.w3.org/2000/svg" xmlns:xlink="http://www.w3.org/1999/xlink" x="0px" y="0px"
	 width="32px" height="56px" viewBox="0 0 32 56" enable-background="new 0 0 32 56" xml:space="preserve">
<path fill="#434343" d="M28,55.4c-0.4-1.2-0.8-2.3-1.3-3.5c-0.7-1.9-1.5-4.8-3.3-7.8c-0.9-1.4-1.5-2.3-2.8-3.4
	c-0.4-1.9-1.4-5.7-2.9-7.5c0.7,2.5,1.8,6.4,2,8.7c0.8,0.8,1.5,1.5,2.1,2.3c1.3,1.6,2,3.5,2.7,5.4c0.2,0.7,0.6,2.3,0.5,2.3
	c-0.1-0.2-0.2-0.5-0.4-0.7c-0.9-2-1.9-4-3.3-5.8c-0.5-0.6-1-1-1.8-1.4c0.1,2.7-0.4,3.8-1.5,6.2c0,0-0.2,0.3-0.2,0.3
	c0-0.2,0.1-0.4,0.1-0.5c0.5-1.8,0.4-3.6,0.2-5.4c-0.3-3-1.2-5.9-2.1-8.8c-0.9-2.8-2-5.6-3.2-8.3c-0.7-1.6-1.4-3.4-1.5-5.3
	c0-1,0.1-2.2,0.3-2.9c0.1,2.3,0.9,5.3,2.5,7.4c-0.7-2.6-1.6-6-1.3-8.7c0.3-2.7,0.7-5.4,2.1-7.9c0,0,1,1.3,1.8-0.3
	c0.9-1.6-0.6-1.7-0.6-1.7c0.8-2.2,6.2-6.9,8.5-7.3c-0.1,0.1-0.2,0.2-0.3,0.3c-3.3,2.4-5.5,5.7-7,9.5c-0.8,2-1.4,4.1-1.6,6.3
	c-0.4,2.9-0.2,5.8,0.6,8.7c0.6,2,1.5,3.8,2.3,5.6c2,4.6,4.3,9.2,6.1,13.9c1.3,3.3,2.3,5.9,3,9.4C27.9,54.5,28,55.4,28,55.4z"/>
<path fill="#434343" d="M12,29.2c0.4,0.8,0.8,1.5,1.2,2.3c1.3,2.9,2.4,5.8,3.1,8.8c0.4,1.8,0.7,2.9,0.9,5.2c0.1,0.3,0.1,1.3,0,1.3
	c-0.1-0.3-0.1-0.5-0.2-0.8c-0.7-2.7-2.3-4.6-4.8-5.9c-1.8-0.9-3.6-1.9-5.3-2.9c-2.1-1.2-3.9-2.8-5.2-4.9c-0.9-1.4-1.4-3-1.2-4.7
	c0-0.4,0.3-1.3,0.4-1.3c0,0.2,0.1,0.5,0.1,0.7c0.2,2.9,1.4,5.1,3.8,6.7c1.2,0.8,2.4,1.6,3.8,1.9c1.6,0.3,2.7,0,3.5-1.9
	C12.9,31.8,11.9,29.3,12,29.2z"/>
<path fill="#434343" d="M10.6,11.6c0,0-0.7,1.3-1,2.1c-0.8,1.9-0.9,3.9-0.7,5.9c0.2,2.6,1.1,5.1,1.7,7.6c0.3,1.6,0.8,3.1,0.7,4.7
	c0,0.4-0.1,0.8-0.2,1.2c-0.1,0.3-0.3,0.6-0.5,0.8c-1.1,1.1-3.3,0.9-4.2-0.5c-1.1-1.7-0.2-3.7-0.1-3.7c0,0-0.1,1.2,0.3,2
	c0.3,0.6,1.2,1,1.8,0.7c1.9-0.9,1.1-3.9,1-4.5c-0.1-0.4-0.4-1.1-1-1.1c-0.5,0.1-0.5,0.7-0.5,1.5c-0.3-0.5-0.3-1-0.4-1.4
	c-0.2-1.5-0.3-3-0.2-4.5c0.2-2.7,0.4-5.3,1.4-7.8C9.5,12.9,10.6,11.6,10.6,11.6z"/>
<path fill="#434343" d="M31,36.3c-0.5-4.1-2.6-7-6.1-9c-0.1-0.1-0.3-0.1-0.4-0.2c0,0,0.2,0.6,0.2,0.8c0.2,0.9-0.1,1.8-1,2.4
	c-0.4,0.3-1,0.3-1.4,0.1c-0.7-0.3-0.9-0.8-1-1.6c0-0.8,0.2-1.5,0.9-2c0.6-0.5,1.4-0.8,2.3-0.5c-1.7-2.5-3.1-5.2-3.7-8.1
	c-0.1,0-0.1,0-0.2,0c-0.4,0-0.7-0.3-0.7-0.6c0-0.3,0.3-0.6,0.6-0.6c-0.8-5.9,1-11.1,5.1-15.5c-0.2,0.1-0.4,0.1-0.5,0.3
	c-2,1.6-3.6,3.5-4.8,5.7c-2.3,4.3-3.4,8.9-3,13.7c0.2,2.2,0.6,4.4,1.4,6.5c0.8,2,1.7,4,2.6,6c0.8,1.7,1.7,3.4,2.5,5.2
	c1.5,3.7,3,7.4,4.5,11.1c0.2,0.5,0.4,1,0.6,1.4c0,0-0.1-1-0.1-1.4c0-2.1,0.7-4,1.4-5.9C31,41.6,31.3,39,31,36.3z"/>
</svg>
